<svg width="20" height="17" viewBox="0 0 20 17" fill="none" xmlns="http://www.w3.org/2000/svg">
<path fill-rule="evenodd" clip-rule="evenodd" d="M18.0621 8.00823L17.1221 9.01724L5.72205 9.00923L4.7721 8.00923L3.82215 2.00923H0.962044C0.829112 2.02477 0.694456 2.00914 0.568611 1.96359C0.442766 1.91803 0.329248 1.84379 0.237068 1.74676C0.144888 1.64973 0.0765309 1.53256 0.0374832 1.40455C-0.00156438 1.27654 -0.0102389 1.14119 0.0120926 1.00923C0.0140415 0.864477 0.0467301 0.721795 0.107918 0.590601C0.169106 0.459407 0.257429 0.342699 0.367073 0.248178C0.476717 0.153658 0.605126 0.0834813 0.743904 0.0422915C0.882682 0.0011017 1.02867 -0.0101738 1.17213 0.00922569H3.50208C3.80208 0.00922569 4.10206 0.0152224 4.10206 0.0152224C4.39949 -0.025232 4.70135 0.0463178 4.94898 0.215967C5.19662 0.385616 5.37245 0.641252 5.44215 0.933222L5.83204 3.01122H18.0621L19.0121 4.01122V5.01122L18.0621 8.00823ZM6.1421 5.00823L6.49207 7.00823H16.5021L17.092 5.00823H6.1421ZM8.00208 10.0082C8.59543 10.0082 9.17548 10.1842 9.66883 10.5138C10.1622 10.8435 10.5466 11.312 10.7737 11.8602C11.0008 12.4084 11.0602 13.0116 10.9445 13.5935C10.8287 14.1754 10.543 14.71 10.1234 15.1296C9.70386 15.5491 9.16935 15.8348 8.58741 15.9506C8.00547 16.0663 7.40219 16.0069 6.85401 15.7799C6.30583 15.5528 5.83734 15.1683 5.5077 14.6749C5.17805 14.1816 5.00208 13.6016 5.00208 13.0082C5.00208 12.2126 5.31814 11.4495 5.88074 10.8869C6.44335 10.3243 7.20643 10.0082 8.00208 10.0082ZM8.01209 14.0082C8.20987 14.0082 8.40319 13.9496 8.56763 13.8397C8.73208 13.7298 8.86023 13.5736 8.93592 13.3909C9.01161 13.2082 9.03151 13.0071 8.99293 12.8131C8.95434 12.6192 8.8591 12.441 8.71925 12.3011C8.57939 12.1613 8.40114 12.066 8.20716 12.0274C8.01318 11.9889 7.81213 12.0087 7.6294 12.0843C7.44668 12.16 7.29055 12.2882 7.18067 12.4527C7.07079 12.6171 7.01209 12.8105 7.01209 13.0082C7.01341 13.2726 7.11938 13.5257 7.30677 13.7121C7.49416 13.8986 7.74774 14.0032 8.01209 14.0032V14.0082ZM15.0221 10.0082C15.6154 10.0082 16.1955 10.1842 16.6889 10.5138C17.1822 10.8435 17.5666 11.312 17.7937 11.8602C18.0208 12.4084 18.0802 13.0116 17.9645 13.5935C17.8487 14.1754 17.563 14.71 17.1434 15.1296C16.7239 15.5491 16.1893 15.8348 15.6073 15.9506C15.0254 16.0663 14.4222 16.0069 13.874 15.7799C13.3259 15.5528 12.8574 15.1683 12.5277 14.6749C12.1981 14.1816 12.0221 13.6016 12.0221 13.0082C12.0221 12.6143 12.0997 12.2242 12.2505 11.8602C12.4013 11.4962 12.6222 11.1655 12.9008 10.8869C13.1793 10.6083 13.5101 10.3874 13.874 10.2366C14.238 10.0858 14.6281 10.0082 15.0221 10.0082ZM15.0121 14.0082C15.2099 14.0082 15.4032 13.9496 15.5676 13.8397C15.7321 13.7298 15.8602 13.5736 15.9359 13.3909C16.0116 13.2082 16.0315 13.0071 15.9929 12.8131C15.9543 12.6192 15.8591 12.441 15.7192 12.3011C15.5794 12.1613 15.4011 12.066 15.2072 12.0274C15.0132 11.9889 14.8121 12.0087 14.6294 12.0843C14.4467 12.16 14.2906 12.2882 14.1807 12.4527C14.0708 12.6171 14.0121 12.8105 14.0121 13.0082C14.0134 13.2726 14.1194 13.5257 14.3068 13.7121C14.4942 13.8986 14.7477 14.0032 15.0121 14.0032V14.0082Z" fill="#A9A8A8"/>
</svg>
