<svg width="16" height="18" viewBox="0 0 16 18" fill="none" xmlns="http://www.w3.org/2000/svg">
<path fill-rule="evenodd" clip-rule="evenodd" d="M13.5001 18H2.47004C1.99309 17.9968 1.52717 17.8564 1.12775 17.5957C0.728338 17.3351 0.412333 16.965 0.217353 16.5298C0.0223727 16.0945 -0.0433843 15.6123 0.0280217 15.1407C0.0994277 14.6691 0.304958 14.228 0.620063 13.87C0.640063 13.844 0.650112 13.818 0.670112 13.793C2.04011 12.093 5.14007 11.003 7.50007 11.003H8.50007C10.8601 11.003 13.96 12.092 15.33 13.793C15.35 13.818 15.3601 13.844 15.3801 13.87C15.696 14.2302 15.9011 14.674 15.971 15.148C16.0409 15.622 15.9725 16.1061 15.774 16.5422C15.5755 16.9783 15.2554 17.3478 14.852 17.6064C14.4486 17.865 13.9792 18.0017 13.5001 18ZM14.0001 15.467H13.9901C13.9072 15.0983 13.6851 14.7758 13.3701 14.567C11.9062 13.6394 10.2302 13.1001 8.50007 13H7.50007C5.77007 13.0998 4.09403 13.6388 2.63007 14.566C2.31505 14.7748 2.09292 15.0973 2.01008 15.466H2.00007V15.5C2.00007 15.6326 2.05278 15.7598 2.14655 15.8536C2.24032 15.9473 2.36746 16 2.50007 16H13.5001C13.6327 16 13.7598 15.9473 13.8536 15.8536C13.9474 15.7598 14.0001 15.6326 14.0001 15.5V15.467ZM8.00007 10C7.01116 10 6.04448 9.70676 5.22224 9.15735C4.39999 8.60795 3.75912 7.82706 3.38068 6.91343C3.00224 5.9998 2.90321 4.99446 3.09614 4.02456C3.28906 3.05465 3.76528 2.16373 4.46455 1.46447C5.16381 0.765206 6.0547 0.289001 7.0246 0.0960754C7.99451 -0.0968507 8.99989 0.00216782 9.91352 0.380606C10.8272 0.759044 11.608 1.39991 12.1574 2.22216C12.7068 3.0444 13.0001 4.0111 13.0001 5.00001C13.0001 6.32609 12.4733 7.59786 11.5356 8.53554C10.5979 9.47323 9.32615 10 8.00007 10ZM8.00007 2.00001C7.40672 2.00001 6.82667 2.17595 6.33332 2.50559C5.83997 2.83523 5.45552 3.30377 5.22846 3.85195C5.0014 4.40013 4.94193 5.00333 5.05768 5.58527C5.17344 6.16722 5.45917 6.70177 5.87873 7.12133C6.29829 7.54089 6.8328 7.8266 7.41474 7.94236C7.99668 8.05811 8.59996 7.99871 9.14814 7.77164C9.69632 7.54458 10.1648 7.16007 10.4945 6.66672C10.8241 6.17338 11.0001 5.59335 11.0001 5.00001C11.0001 4.20436 10.684 3.44129 10.1214 2.87868C9.5588 2.31607 8.79572 2.00001 8.00007 2.00001Z" fill="#A9A8A8"/>
</svg>
