<svg width="18" height="18" viewBox="0 0 18 18" fill="none" xmlns="http://www.w3.org/2000/svg">
<path fill-rule="evenodd" clip-rule="evenodd" d="M16.7099 16.719C16.5226 16.9053 16.2691 17.0098 16.005 17.0098C15.7408 17.0098 15.4874 16.9053 15.3 16.719L12.04 13.431C10.7432 14.4443 9.14566 14.9964 7.49996 15C6.0166 15 4.56658 14.5601 3.33321 13.736C2.09984 12.9119 1.13854 11.7406 0.570881 10.3701C0.00322348 8.99969 -0.145266 7.49168 0.144123 6.03683C0.433512 4.58197 1.14772 3.2456 2.19661 2.19671C3.24551 1.14781 4.58197 0.4335 6.03682 0.144111C7.49168 -0.145278 8.99963 0.00325739 10.3701 0.570915C11.7405 1.13857 12.9118 2.09986 13.7359 3.33323C14.56 4.5666 15 6.01665 15 7.50001C14.9953 9.13598 14.4504 10.7246 13.4499 12.019L16.7099 15.308C16.8965 15.4954 17.0013 15.7491 17.0013 16.0135C17.0013 16.2779 16.8965 16.5316 16.7099 16.719ZM7.49996 2.00001C6.41216 2.00001 5.34876 2.32257 4.44429 2.92692C3.53982 3.53127 2.83494 4.39026 2.41866 5.39526C2.00238 6.40025 1.89345 7.50611 2.10567 8.573C2.31789 9.6399 2.84173 10.6199 3.61092 11.3891C4.38011 12.1583 5.36006 12.6821 6.42696 12.8943C7.49386 13.1065 8.5997 12.9976 9.60469 12.5814C10.6097 12.1651 11.4687 11.4601 12.0731 10.5556C12.6774 9.65117 13 8.5878 13 7.50001C13 6.04132 12.4204 4.64237 11.389 3.61092C10.3575 2.57947 8.95865 2.00001 7.49996 2.00001Z" fill="#A9A8A8"/>
</svg>
