<svg width="6" height="14" viewBox="0 0 6 14" fill="none" xmlns="http://www.w3.org/2000/svg">
<path fill-rule="evenodd" clip-rule="evenodd" d="M3.7401 9.46017C4.08039 10.1597 4.4576 10.8406 4.8701 11.5002C4.91883 11.5662 4.9539 11.6413 4.97325 11.721C4.99261 11.8008 4.99581 11.8836 4.98277 11.9646C4.96974 12.0456 4.94072 12.1232 4.89733 12.1928C4.85393 12.2625 4.79707 12.3228 4.73009 12.3702L4.43016 12.6702C4.33518 12.7878 4.21207 12.8796 4.07225 12.9371C3.93243 12.9946 3.78036 13.0159 3.63011 12.9992C3.11725 13.0039 2.60818 12.9109 2.13011 12.7252C0.940114 12.0462 0.480099 10.3752 0.240099 9.06217C-0.0866422 7.3836 -0.0798269 5.65712 0.260118 3.98117C0.510118 2.66417 0.99005 0.989169 2.19005 0.296168C2.66734 0.106072 3.1763 0.00801199 3.69005 0.00716701C3.8398 -0.0120309 3.99201 0.00749539 4.13207 0.0638687C4.27212 0.120242 4.3954 0.211585 4.4901 0.329173L4.79015 0.629176C4.9167 0.733211 4.99857 0.881738 5.01903 1.04428C5.03949 1.20682 4.99695 1.37102 4.90013 1.50317C4.44013 2.30317 4.11013 2.87317 3.77013 3.54817C3.62013 3.82817 3.50007 3.80617 3.21007 3.76217C3.02007 3.73417 2.8901 3.71317 2.7401 3.69017C2.67026 3.66478 2.59587 3.65422 2.52172 3.65916C2.44756 3.6641 2.37529 3.68443 2.30943 3.71887C2.24358 3.7533 2.18564 3.80108 2.13927 3.85916C2.0929 3.91723 2.05915 3.98432 2.04015 4.05616C1.78985 4.85114 1.65842 5.67876 1.65013 6.51217C1.64865 7.34418 1.7734 8.17159 2.02013 8.96617C2.03784 9.03753 2.07052 9.10429 2.11608 9.162C2.16164 9.21971 2.21899 9.26703 2.28429 9.30082C2.34959 9.33461 2.42143 9.35408 2.49486 9.35794C2.56828 9.36179 2.64159 9.34994 2.71007 9.32318L3.18016 9.24816C3.47016 9.20116 3.5901 9.18217 3.7401 9.45516V9.46017Z" fill="#A9A8A8"/>
</svg>
