<svg width="19" height="19" viewBox="0 0 19 19" fill="none" xmlns="http://www.w3.org/2000/svg">
<path d="M4.56097 13.1784C0.381974 8.99936 -1.94604 5.29836 2.11096 0.878357C2.67354 0.315944 3.4365 0 4.23199 0C5.02749 0 5.79038 0.315944 6.35297 0.878357L8.22296 3.42836C8.64194 3.96699 8.89037 4.61856 8.93634 5.29941C8.98231 5.98025 8.82372 6.65929 8.48096 7.24936L8.47498 7.24236C7.73098 7.94236 7.75298 7.93536 8.51898 8.70135L9.29596 9.57436C10.04 10.3624 10.055 10.3624 10.754 9.61836L10.745 9.60835C11.3183 9.23747 11.9964 9.06271 12.6775 9.11032C13.3586 9.15793 14.0059 9.42534 14.522 9.87236L17.141 11.7614C17.4196 12.0399 17.6406 12.3707 17.7914 12.7347C17.9422 13.0987 18.0198 13.4888 18.0198 13.8829C18.0198 14.2769 17.9422 14.667 17.7914 15.031C17.6406 15.395 17.4196 15.7258 17.141 16.0044C12.723 20.0634 8.73997 17.3564 4.56097 13.1784ZM15.731 14.5924C15.9184 14.4048 16.0237 14.1505 16.0237 13.8854C16.0237 13.6202 15.9184 13.3659 15.731 13.1784L13.113 11.2884C12.8422 11.1018 12.5143 11.0164 12.187 11.0474L12.196 11.0564C10.405 12.8914 9.74298 12.8024 7.82098 10.9244L6.771 9.73036C4.936 7.85236 5.25297 7.64336 7.04297 5.80836C7.09245 5.4705 7.01128 5.12647 6.81598 4.84636L4.94598 2.29736C4.75846 2.10989 4.50412 2.00458 4.23895 2.00458C3.97379 2.00458 3.71951 2.10989 3.53198 2.29736L3.52399 2.28836C0.823987 5.30536 2.59999 8.38837 5.97699 11.7654C9.35399 15.1424 12.725 17.3054 15.742 14.6024L15.731 14.5924Z" fill="#A9A8A8"/>
</svg>
